PathFileType	4	(x/y/z)	S04_P20_T21.trc
DataRate	CameraRate	NumFrames	NumMarkers	Units	OrigDataRate	OrigDataStartFrame	OrigNumFrames
240	240	6	51	mm	240	181	361
Frame#	Time	Sternum			R.Acromium			L.Acromium			Top.Head			R.ASIS			L.ASIS			R.PSIS			L.PSIS			R.Great.Tro			L.Great.Tro			R.Iliac.Crest			L.Iliac.Crest			V.Sacral			R.Thigh.Upper.Post			R.Thigh.Lower.Ant			R.Thigh.Lower.Post			R.Thigh.Upper.Ant			R.Knee.Lat			R.Knee.Med			R.Shank.Upper.Post			R.Shank.Lower.Ant			R.Shank.Lower.Post			R.Shank.Upper.Ant			R.Ankle.Lat			R.Ankle.Med			R.Heel.Upper			R.Heel.Med			R.Heel.Lat			R.Toe.Lat			R.Toe.Med			R.Toe.Tip			L.Thigh.Upper.Post			L.Thigh.Lower.Ant			L.Thigh.Lower.Post			L.Thigh.Upper.Ant			L.Knee.Lat			L.Knee.Med			L.Shank.Upper.Post			L.Shank.Lower.Ant			L.Shank.Lower.Post			L.Shank.Upper.Ant			L.Ankle.Lat			L.Ankle.Med			L.Heel.Upper			L.Heel.Med			L.Heel.Lat			L.Toe.Lat			L.Toe.Med			L.Toe.Tip			Cervical.Spine			Back			
		X1	Y1	Z1	X2	Y2	Z2	X3	Y3	Z3	X4	Y4	Z4	X5	Y5	Z5	X6	Y6	Z6	X7	Y7	Z7	X8	Y8	Z8	X9	Y9	Z9	X10	Y10	Z10	X11	Y11	Z11	X12	Y12	Z12	X13	Y13	Z13	X14	Y14	Z14	X15	Y15	Z15	X16	Y16	Z16	X17	Y17	Z17	X18	Y18	Z18	X19	Y19	Z19	X20	Y20	Z20	X21	Y21	Z21	X22	Y22	Z22	X23	Y23	Z23	X24	Y24	Z24	X25	Y25	Z25	X26	Y26	Z26	X27	Y27	Z27	X28	Y28	Z28	X29	Y29	Z29	X30	Y30	Z30	X31	Y31	Z31	X32	Y32	Z32	X33	Y33	Z33	X34	Y34	Z34	X35	Y35	Z35	X36	Y36	Z36	X37	Y37	Z37	X38	Y38	Z38	X39	Y39	Z39	X40	Y40	Z40	X41	Y41	Z41	X42	Y42	Z42	X43	Y43	Z43	X44	Y44	Z44	X45	Y45	Z45	X46	Y46	Z46	X47	Y47	Z47	X48	Y48	Z48	X49	Y49	Z49	X50	Y50	Z50	X51	Y51	Z51	

181	0.75	-323.14	1289.7	266.49	-435.8	1515.1	455.44	-471.06	1506.9	107.53	-452.06	1839.7	270.83	-360.98	1004.4	406.14	-369.74	1025.2	157.37	-577.54	1037	309.31	-570.88	1041	229.4	-447.59	921.27	465.42	-475.78	935.26	87.081	-445.24	1094.6	448.6	-469.91	1106.8	114.4	-593.73	996.67	269.78	-447.4	661.77	441.84	-372.89	581.06	403.09	-447.16	571.99	424.89	-363.15	688.78	429.4	-423.62	504.31	411.57	-452.37	504.22	279.83	-512.59	282.64	400.89	-452.99	203.31	351.85	-518.41	213.93	381.27	-449.88	271.58	379.23	-514.63	101.97	355.05	-496.17	117.88	266.54	-583.51	74.334	299.54	-574	43.796	268.85	-577.02	41.627	333.95	-406.71	38.827	382.67	-370.14	41.045	262.32	-308.15	59.209	310.46	-398.92	700.01	88.068	-286.41	642.46	83.916	-355.46	621.62	97.32	-334.37	719.02	72.793	-296.85	548.71	96.652	-273	534.85	224.9	-447.38	430.73	121.24	-426.92	322.68	106.95	-476.9	358.93	126.07	-397.8	393.71	101.13	-516.74	197.61	128.71	-494.31	200.28	219.38	-591.99	203.38	187.38	-593.56	178.06	221.17	-605.95	179.09	160.16	-456.91	87.743	96.474	-407.82	77.082	203.86	-361.18	63.08	147.84	-503.03	1561.5	291.09	-583.96	1305.2	271.66
182	0.75417	-317.83	1289.8	266.44	-430.04	1515.1	455.57	-465.83	1507	107.69	-446.52	1839.7	270.85	-356.17	1004.2	406.37	-364.32	1025.4	157.57	-572.41	1037.2	308.88	-565.63	1041.2	229	-443.2	921.21	465.26	-469.98	935.61	86.821	-440.27	1094.6	448.58	-464.49	1107	114.34	-588.51	996.83	269.27	-445.01	661.91	441.75	-371.03	580.59	403.2	-445.39	572.1	424.95	-360.53	688.28	429.41	-422.52	504.18	411.68	-450.91	504.23	279.79	-512.22	282.88	400.76	-452.66	203.31	351.95	-518.17	214.15	381.06	-449.43	271.59	379.34	-514.47	102.11	354.9	-496.08	117.99	266.42	-583.48	74.519	299.41	-573.98	43.865	268.76	-576.96	41.819	333.89	-406.68	38.797	382.67	-370.09	40.934	262.28	-308.07	58.974	310.49	-392	700.71	87.706	-279.18	643.65	84.312	-348.26	622.47	97.095	-327.42	720	72.95	-289.25	549.6	97.06	-265.95	536.03	225.15	-437.48	428.05	120.61	-414.46	320.47	106.85	-465.37	355.62	125.55	-386.97	392.12	100.96	-501.23	193.23	128.3	-479.3	196.5	219.08	-577	197.01	186.63	-578	171.63	220.39	-590.08	172.35	159.35	-438.34	85	96.3	-389.5	75.641	203.97	-342.3	62.861	148.16	-497.5	1561.6	291.33	-578.58	1305.4	272
183	0.75833	-312.5	1289.8	266.38	-424.28	1515.2	455.68	-460.59	1507	107.84	-440.98	1839.7	270.87	-351.34	1003.9	406.59	-358.9	1025.5	157.75	-567.28	1037.3	308.45	-560.38	1041.4	228.61	-438.79	921.13	465.09	-464.2	935.9	86.565	-435.27	1094.5	448.54	-459.06	1107.2	114.27	-583.28	996.95	268.77	-442.59	662.03	441.64	-369.16	580.13	403.29	-443.59	572.2	424.99	-357.9	687.77	429.39	-421.4	504.04	411.79	-449.45	504.25	279.75	-511.83	283.12	400.62	-452.31	203.33	352.04	-517.91	214.37	380.85	-448.97	271.59	379.44	-514.32	102.26	354.74	-495.98	118.1	266.31	-583.43	74.698	299.28	-573.93	43.936	268.68	-576.89	42.015	333.81	-406.66	38.766	382.67	-370.05	40.82	262.24	-307.98	58.733	310.51	-385.19	701.33	87.394	-272.11	644.73	84.715	-341.2	623.24	96.905	-320.59	720.88	73.124	-281.8	550.4	97.468	-259.04	537.11	225.39	-427.59	425.27	119.95	-401.97	318.23	106.75	-453.81	352.22	125.01	-376.15	390.46	100.79	-485.58	188.83	127.88	-464.14	192.71	218.77	-561.82	190.61	185.89	-562.23	165.2	219.62	-574	165.6	158.55	-419.66	82.33	96.145	-371.09	74.292	204.1	-323.36	62.756	148.48	-491.97	1561.7	291.55	-573.2	1305.5	272.33
184	0.7625	-307.17	1289.8	266.33	-418.53	1515.1	455.79	-455.33	1507	107.98	-435.45	1839.7	270.87	-346.49	1003.6	406.78	-353.47	1025.7	157.92	-562.13	1037.3	308.03	-555.12	1041.5	228.22	-434.36	921.01	464.93	-458.44	936.13	86.313	-430.25	1094.4	448.5	-453.62	1107.3	114.19	-578.05	997.02	268.28	-440.16	662.15	441.52	-367.27	579.67	403.37	-441.76	572.3	425.03	-355.25	687.26	429.34	-420.25	503.91	411.88	-447.98	504.27	279.69	-511.42	283.37	400.47	-451.96	203.34	352.12	-517.64	214.59	380.63	-448.5	271.61	379.54	-514.15	102.41	354.58	-495.89	118.22	266.2	-583.35	74.871	299.15	-573.86	44.011	268.6	-576.82	42.216	333.74	-406.63	38.734	382.66	-370.01	40.704	262.2	-307.89	58.485	310.54	-378.5	701.88	87.134	-265.19	645.69	85.122	-334.29	623.92	96.752	-313.88	721.66	73.313	-274.51	551.1	97.873	-252.27	538.08	225.63	-417.71	422.38	119.29	-389.46	315.96	106.66	-442.21	348.75	124.46	-365.35	388.75	100.62	-469.79	184.46	127.47	-448.84	188.92	218.46	-546.46	184.21	185.15	-546.24	158.78	218.86	-557.71	158.85	157.77	-400.89	79.752	96.002	-352.59	73.045	204.23	-304.37	62.778	148.8	-486.43	1561.7	291.76	-567.81	1305.5	272.65
185	0.76667	-301.83	1289.7	266.27	-412.77	1515.1	455.9	-450.06	1507	108.11	-429.93	1839.6	270.87	-341.62	1003.3	406.95	-348.04	1025.7	158.07	-556.98	1037.3	307.61	-549.85	1041.5	227.84	-429.9	920.86	464.75	-452.7	936.3	86.065	-425.19	1094.2	448.45	-448.18	1107.3	114.11	-572.82	997.04	267.8	-437.69	662.25	441.38	-365.34	579.21	403.43	-439.91	572.39	425.05	-352.59	686.74	429.26	-419.09	503.78	411.96	-446.5	504.28	279.63	-511	283.61	400.32	-451.59	203.37	352.19	-517.36	214.82	380.41	-448.02	271.62	379.63	-513.98	102.56	354.42	-495.8	118.35	266.1	-583.25	75.037	299.02	-573.76	44.091	268.53	-576.75	42.42	333.66	-406.6	38.701	382.64	-369.97	40.589	262.17	-307.8	58.231	310.57	-371.94	702.35	86.931	-258.43	646.53	85.534	-327.54	624.49	96.639	-307.3	722.33	73.516	-267.38	551.7	98.275	-245.63	538.94	225.86	-407.83	419.41	118.62	-376.94	313.68	106.56	-430.57	345.23	123.91	-354.58	386.99	100.45	-453.87	180.12	127.06	-433.39	185.15	218.14	-530.9	177.84	184.43	-530.05	152.38	218.11	-541.21	152.13	157.01	-382.02	77.284	95.868	-334.03	71.913	204.36	-285.34	62.936	149.12	-480.89	1561.6	291.97	-562.41	1305.5	272.95
186	0.77083	-296.48	1289.6	266.21	-407.02	1514.9	455.99	-444.79	1506.9	108.23	-424.41	1839.5	270.86	-336.72	1003	407.1	-342.61	1025.7	158.2	-551.82	1037.3	307.21	-544.57	1041.5	227.47	-425.42	920.68	464.58	-446.98	936.41	85.822	-420.11	1094	448.38	-442.74	1107.3	114.02	-567.58	997.01	267.34	-435.2	662.35	441.24	-363.39	578.75	403.47	-438.02	572.48	425.06	-349.91	686.22	429.16	-417.89	503.66	412.03	-445	504.3	279.55	-510.55	283.86	400.15	-451.21	203.39	352.26	-517.05	215.06	380.19	-447.53	271.65	379.71	-513.81	102.72	354.25	-495.7	118.48	266	-583.12	75.195	298.88	-573.63	44.176	268.47	-576.68	42.629	333.57	-406.58	38.667	382.62	-369.94	40.473	262.13	-307.7	57.972	310.61	-365.51	702.74	86.784	-251.83	647.24	85.949	-320.95	624.97	96.569	-300.86	722.88	73.733	-260.42	552.19	98.674	-239.12	539.69	226.09	-397.97	416.35	117.96	-364.41	311.4	106.47	-418.9	341.66	123.37	-343.83	385.19	100.27	-437.84	175.83	126.64	-417.81	181.41	217.82	-515.16	171.51	183.72	-513.64	146.04	217.38	-524.51	145.45	156.27	-363.08	74.945	95.737	-315.41	70.906	204.49	-266.28	63.241	149.42	-475.34	1561.6	292.16	-557.02	1305.5	273.24
